<?xml version="1.0" encoding="utf-8"?>
<svg version="1.1" xmlns:xlink="http://www.w3.org/1999/xlink" width="20px" height="12px" xmlns="http://www.w3.org/2000/svg">
  <g transform="matrix(1 0 0 1 -588 -26 )">
    <path d="M 20 2.660869565217392  C 20 2.8657004830917874  19.921422663358147 3.041545893719806  19.764267990074444 3.188405797101449  L 10.558312655086848 11.779710144927536  C 10.401157981803145 11.926570048309179  10.21505376344086 12  10 12  C 9.784946236559142 12  9.598842018196859 11.926570048309179  9.44168734491315 11.779710144927536  L 0.23573200992555832 3.188405797101449  C 0.07857733664185289 3.041545893719806  0 2.8657004830917874  0 2.660869565217392  C 0 2.456038647342994  0.07857733664185289 2.2801932367149753  0.23573200992555832 2.1333333333333337  L 2.295285359801489 0.22028985507246368  C 2.4524400330851943 0.07342995169082078  2.6385442514474775 0  2.853598014888337 0  C 3.0686517783291984 0  3.254755996691481 0.07342995169082078  3.411910669975186 0.22028985507246368  L 10 6.376811594202898  L 16.588089330024815 0.22028985507246368  C 16.74524400330852 0.07342995169082078  16.931348221670802 0  17.146401985111662 0  C 17.361455748552526 0  17.547559966914807 0.07342995169082078  17.70471464019851 0.22028985507246368  L 19.764267990074444 2.1333333333333337  C 19.921422663358147 2.2801932367149753  20 2.456038647342994  20 2.660869565217392  Z " fill-rule="nonzero" fill="#ffffff" stroke="none" transform="matrix(1 0 0 1 588 26 )" />
  </g>
</svg>