<svg xmlns="http://www.w3.org/2000/svg" width="121" height="14" viewBox="0 0 121 14">
    <g fill="#FFF" fill-rule="evenodd">
        <path d="M21.91.944l-3.937 4.828L14.01.944h-2.206L16.85 7.04l-5.434 6.545h2.209l4.34-5.24 4.3 5.24h2.184L19.044 7.04 24.096.944H21.91M30.555 13.585V8.102h1.337c1.193 0 2.109-.129 2.748-.385a3.154 3.154 0 0 0 1.509-1.235c.368-.567.551-1.219.551-1.955 0-1.098-.358-1.972-1.075-2.624-.718-.651-1.678-.977-2.883-.977h-4.004v12.659h1.817zm4.274-9.103c0 .646-.199 1.142-.596 1.488-.398.348-.964.52-1.699.52h-1.98V2.537h1.871c1.603 0 2.404.65 2.404 1.946zM41.36.926v12.64h7.493V11.92h-5.685V.926H41.36M53.518 2.455c-1.277 1.237-1.915 2.799-1.915 4.687 0 1.84.633 3.371 1.9 4.593 1.269 1.221 2.853 1.832 4.756 1.832 1.993 0 3.644-.61 4.954-1.832 1.31-1.222 1.965-2.765 1.965-4.629 0-1.864-.65-3.414-1.947-4.65C61.933 1.217 60.309.6 58.358.6c-1.95 0-3.564.618-4.84 1.855m8.384 1.235c.942.914 1.413 2.04 1.413 3.38 0 1.375-.47 2.525-1.413 3.448-.942.923-2.117 1.384-3.526 1.384-1.402 0-2.57-.452-3.503-1.358-.933-.904-1.4-2.038-1.4-3.402 0-1.405.465-2.56 1.396-3.465.93-.905 2.117-1.358 3.562-1.358 1.372 0 2.53.457 3.471 1.371M72.792 13.567V8.065h.47c.591 0 1.012.068 1.262.204.25.135.531.357.842.663.31.308.652.721 1.025 1.24l.605.986.56.924.352.498c.054.072.09.124.108.154l.55.833h2.152l-.669-.905a25.154 25.154 0 0 1-1.058-1.62c-.699-1.14-1.241-1.94-1.626-2.398-.386-.458-.78-.82-1.184-1.086.687-.265 1.214-.666 1.581-1.203.368-.537.552-1.173.552-1.91 0-1.079-.375-1.936-1.125-2.57-.751-.633-1.765-.95-3.042-.95h-3.163v12.642h1.808zm2.444-10.904c.383.133.68.36.89.683.211.323.317.684.317 1.082 0 .404-.095.764-.285 1.08-.19.317-.455.554-.795.712-.34.156-.969.234-1.885.234h-.686v-3.99h.542c.886 0 1.52.067 1.902.2zM85.769.944v12.623h7.33v-1.61h-5.523V8.028h5.17V6.41h-5.17V2.555h5.35V.944H85.77M101.327 13.567V8.065h.47c.592 0 1.012.068 1.263.204.25.135.53.357.84.663.312.308.654.721 1.027 1.24l.605.986.559.924.352.498c.054.072.09.124.109.154l.55.833h2.151l-.669-.905a25.154 25.154 0 0 1-1.057-1.62c-.7-1.14-1.242-1.94-1.627-2.398-.386-.458-.78-.82-1.184-1.086.687-.265 1.214-.666 1.581-1.203.368-.537.552-1.173.552-1.91 0-1.079-.375-1.936-1.125-2.57-.75-.633-1.764-.95-3.042-.95H99.52v12.642h1.808zm2.445-10.904c.382.133.679.36.89.683.21.323.316.684.316 1.082 0 .404-.095.764-.285 1.08a1.77 1.77 0 0 1-.795.712c-.34.156-.968.234-1.885.234h-.686v-3.99h.542c.886 0 1.52.067 1.903.2zM119.14 10.315c0 .475-.19.87-.566 1.186-.376.316-.848.473-1.414.473-1.283 0-2.413-.619-3.39-1.857v2.299c1.025.767 2.16 1.151 3.408 1.151 1.085 0 1.966-.317 2.643-.95.678-.633 1.017-1.457 1.017-2.47 0-1.424-.77-2.596-2.31-3.517l-1.38-.818c-.62-.364-1.07-.71-1.35-1.041-.279-.33-.418-.685-.418-1.064 0-.427.19-.776.569-1.05.38-.274.864-.41 1.455-.41 1.048 0 2.027.438 2.937 1.314V1.507a5.08 5.08 0 0 0-2.9-.889c-1.104 0-2 .31-2.69.932-.69.621-1.034 1.43-1.034 2.425 0 .664.182 1.25.546 1.76.365.51.978 1.028 1.84 1.555l1.373.836c1.109.69 1.663 1.42 1.663 2.19M0 .944v12.623h7.33v-1.61H1.808V8.028h5.17V6.41h-5.17V2.555h5.35V.944H0"/>
    </g>
</svg>
