<svg xmlns="http://www.w3.org/2000/svg" width="90" height="25" viewBox="0 0 90 25">
    <path fill="#FFF" fill-rule="evenodd" d="M90 6.017c-1.587-.65-3.15-1.348-4.755-1.933-7.987-2.441-10.892.723-10.99.67-1.506-.811-3.144-1.157-4.823-1.286-1.6-.123-3.21-.144-4.866-.211v-.865c-1.177.155-11.101 1.357-11.144 1.273C52.165 1.788 50.877 0 50.849 0c-.517.957-3.116 4.474-3.922 5.923L45.54 3.22l-5.979 1.884c-.2-.375-.365-.75-.592-1.087-.114-.169-7.236-1.836-7.336-1.563-.464 1.266-1.472 3.88-1.563 3.923V2.369c-.83.108-11.883 1.47-11.939 1.386-.97-1.427-2.405-2.067-4.045-2.342-2.113-.354-4.223-.173-6.326.108C5.126 1.873 2.566 2.566 0 3.227c-.037.01 2.792 16.157 3.098 17.823l1.882-.336.6 3.299c4.64-.457 9.245-.918 13.352-3.482l.164.839c.709-.09 6.34-.83 8.452-1.1.152-.02 3.078 1.176 4.381 1.72.15.063.303.12.481.19l2.493-5.873 2.07 5.77c1.786-1.163 3.534-2.304 5.323-3.47L45.423 25 52.5 14.034l1.074 7.376c.827-.11 6.643-.937 8.76-1.16.85-.09 5.806.31 5.944.31l.261-1.87 6.372 5.374c.326-.38 2.777-3.263 3.42-4.062.222-.277 3.217 1.642 6.518.873 2.042-.638 3.458-1.928 3.93-4.067.262-1.188-.183-2.668-.697-3.763-.088-.188 1.877-6.87 1.918-7.028zM19.176 15.05c0 2.029-3.431 4.456-10.867 5.272l-.333-1.864c5.412-1.205 7.751-2.917 7.751-3.958 0-1.1-1.9-1.824-8.6-1.142l.432 3.45-1.781.329L3.597 5.189c6.166-1.58 12.287-1.898 12.287.564 0 2.007-2.105 4.238-6.374 6.034 6.256-.76 9.666.83 9.666 3.263zm8.35 1.81l-5.63.74L20.28 6.444l6.875-.91V7.63l-4.546.511.274 2.197 3.78-.28.492 3.166-4.08.33.333 2.048 3.946-.216.172 1.474zm14.171-1.757l-2.939 1.92-1.754-4.901-3.65.01-2.413 5.695-1.508-.632 4.48-11.833 3.006.681 4.778 9.06zm10.899-6.968l-6.612 10.249-5.229-10.71 3.4-1.074 2.84 5.567L50.98 5l1.615 3.135zm9.45 8.724l-5.657.767-1.616-11.155 6.872-.91v2.095l-4.544.512.272 2.158 3.78-.28.492 3.205-4.079.33.335 2.048 3.944-.216.2 1.446zm8.628-4.648l5.894 5.016-1.832 2.161-6.888-5.814a30.48 30.48 0 0 1-1.707.628l-.365 2.778-1.634-.12.87-10.788c5.224-.21 8.881.635 8.881 2.382 0 1.139-1.5 2.517-3.22 3.757zm15.846-4.76l-.764 2.88c-1.896-.767-3.947-1.349-5.118-1.349-1.205 0-1.338.385-1.338.625 0 1.992 6.672 2.657 6.672 5.872 0 1.38-1.219 2.284-3.38 2.356-2.083.07-4.093-1.009-6.106-2.78l.71-1.06a11.07 11.07 0 0 0 4.486 1.933c1.121.096 1.658-.197 1.658-.87 0-2.197-7.367-2.316-7.367-6.3 0-1.52 1.222-3.046 3.831-3.046 2.916 0 6.716 1.739 6.716 1.739zM70.693 8.6c-.029-.774-1.083-1.33-3.71-1.319l-.7 4.884c2.483-.976 4.41-2.452 4.41-3.565zm-37.038 2.345l3.11.206-1.659-3.96-1.45 3.754zm-26.828-.063c2-.987 4.369-3.045 4.369-4.29 0-.978-1.056-1.367-5.018-.61l.632 4.9h.017z"/>
</svg>
