<svg xmlns="http://www.w3.org/2000/svg" width="107" height="24" viewBox="0 0 107 24">
    <g stroke="none" stroke-width="1" fill="none" fill-rule="evenodd">
        <g fill="#FFF" fill-rule="nonzero">
            <path d="M50.502878,0 C48.8333005,0 48.0208323,1.0089222 48.0208323,2.17855767 C47.887086,3.21021225 48.4061592,4.21687572 49.3241645,4.70617241 C50.2421698,5.19546911 51.367227,5.06512683 52.1490521,4.37889812 C52.9308771,3.69266941 53.2060539,2.59398898 52.839989,1.62023949 C52.473924,0.646490002 51.5431318,0.00120341124 50.502878,0 L50.502878,0 Z"></path>
            <path d="M50.5,6.01201046 C49.8715323,5.94791506 49.2441338,6.14231927 48.7693829,6.54825533 C48.2946319,6.9541914 48.0157085,7.53473834 48,8.14963696 L48,16.8528305 C48.1581614,18.0796329 49.2297664,19 50.5,19 C51.7702336,19 52.8418386,18.0796329 53,16.8528305 L53,8.14963696 C52.9842915,7.53473834 52.7053681,6.9541914 52.2306171,6.54825533 C51.7558662,6.14231927 51.1284677,5.94791506 50.5,6.01201046 Z"></path>
            <path d="M87.9998396,11.7979427 C87.9998396,8.77957384 86.3472795,6 82.2909957,6 C78.7511369,6 76,8.22556943 76,12.4665687 C76,16.707568 78.7511369,19 82.4787866,19 C86.2064363,19 87.6712055,17.1565026 87.6712055,15.8861132 C87.6886538,15.4704881 87.5300075,15.0672154 87.2355081,14.7785875 C86.9410087,14.4899596 86.5389513,14.3437075 86.13132,14.3769287 C84.6759404,14.3769287 84.6759404,15.3321087 82.6665775,15.3321087 C81.6491036,15.3116844 80.7933983,14.5500038 80.6384356,13.5268185 L86.0937618,13.5268185 C86.5797172,13.5905559 87.0689456,13.4366195 87.4346622,13.1049025 C87.8003787,12.7731854 88.0065841,12.2963402 87.9998396,11.7979427 L87.9998396,11.7979427 Z M80.4882029,11.1675239 C80.4677897,10.6696855 80.647381,10.1848273 80.9856653,9.82448183 C81.3239496,9.46413633 81.7918035,9.2593261 82.2816062,9.25716385 C83.2205607,9.25716385 83.9059976,9.94489346 83.9905035,11.1675239 L80.4882029,11.1675239 Z" id="Shape"></path>
            <path d="M103.260807,11.1961793 C101.706947,10.7759001 100.906474,10.4415871 100.906474,9.91623806 C100.906474,9.57237325 101.198411,9.20940485 101.782286,9.20940485 C103.128965,9.20940485 103.147799,10.5466569 104.70166,10.5466569 C105.187668,10.5867603 105.668004,10.4184455 106.025961,10.0826074 C106.383918,9.74676924 106.586732,9.27414757 106.585126,8.77957384 C106.585126,7.19397502 105.031266,6 101.688113,6 C98.344959,6 96.1883895,7.79573843 96.1883895,10.0499633 C96.1883895,12.6193975 98.118943,13.1351947 99.8234805,13.5650257 C101.151325,13.9088905 102.347326,14.3291697 102.347326,14.8927259 C102.347326,15.4562821 102.017719,15.6664217 101.226663,15.6664217 C99.8328978,15.6664217 99.5692125,14.0808229 97.7893363,14.0808229 C97.3220388,14.0544385 96.8647799,14.2251903 96.5259106,14.5526173 C96.1870412,14.8800443 95.9967192,15.335007 96,15.8096988 C96,17.5385746 97.7422496,19 101.349089,19 C104.955928,19 106.999489,17.3666422 106.999489,15.0168993 C107.037159,12.3423953 104.98418,11.6642175 103.260807,11.1961793 Z"></path>
            <path d="M92.5,0.0120306239 C91.8748326,-0.0516833493 91.2504984,0.139597946 90.7763889,0.5401045 C90.3022794,0.940611054 90.0210523,1.51430747 90,2.123919 L90,16.8595726 C90.1581614,18.0825229 91.2297664,19 92.5,19 C93.7702336,19 94.8418386,18.0825229 95,16.8595726 L95,2.123919 C94.9789477,1.51430747 94.6977206,0.940611054 94.2236111,0.5401045 C93.7495016,0.139597946 93.1251674,-0.0516833493 92.5,0.0120306239 Z"></path>
            <path d="M32.6268948,19.0992526 L32.6268948,8.11481866 C32.6115188,7.50987973 32.3384992,6.93873609 31.8737972,6.53937508 C31.4090952,6.14001408 30.7949766,5.9487587 30.1798116,6.01181593 C29.5361451,5.99546802 28.9084332,6.20907025 28.4140731,6.61267385 C28.7769667,6.94611777 29.0759655,7.34038127 29.2969423,7.77683608 L28.4812479,8.15237228 C27.6755286,6.7885868 26.1653101,5.97217705 24.5563184,6.03059274 C21.2167695,6.03059274 19,8.67812296 19,12.4147082 C19,16.1512934 21.2167695,18.808212 24.5563184,18.808212 C25.7035101,18.8123859 26.8200471,18.4460737 27.7327283,17.766099 L27.7327283,20.4605713 C27.7327283,22.516632 28.5292299,24 30.7555958,24 C32.7900337,24 33.9991807,22.7701189 33.9991807,21.3712466 C34.0238211,20.4194096 33.4910215,19.5372921 32.6268948,19.0992526 L32.6268948,19.0992526 Z M25.8230438,15.05285 C24.546722,15.05285 23.740624,13.9731834 23.740624,12.3677661 C23.740624,10.7623489 24.546722,9.65451709 25.8230438,9.65451709 C27.0993656,9.65451709 27.91506,10.7247953 27.91506,12.3302125 C27.91506,13.9356298 27.108962,15.05285 25.8230438,15.05285 L25.8230438,15.05285 Z" id="Shape"></path>
            <path d="M44.4996243,6.0130544 C43.8744589,5.94871037 43.2503532,6.1437356 42.7788885,6.55076294 C42.3074237,6.95779028 42.0317357,7.53957935 42.0187829,8.15482692 L42.0187829,13.1554833 C42.0187829,14.4845296 41.3839219,15.1729565 40.3779113,15.1729565 C39.3719008,15.1729565 38.97145,14.5418985 38.97145,13.6909264 L38.97145,8.15482692 C38.7973316,6.94171812 37.7370931,6.03944041 36.485725,6.03944041 C35.234357,6.03944041 34.1741184,6.94171812 34,8.15482692 L34,13.5475042 C34,17.0087615 35.5334335,18.9879888 38.649136,18.9879888 C41.2569497,18.9879888 42.1262209,17.6971884 42.555973,16.9418311 L43.3568745,17.3720979 C43.169721,17.7169531 42.9401116,18.0380616 42.6731781,18.3282464 C43.176751,18.7696067 43.8337237,19.0056538 44.5093914,18.9879888 C45.1371527,19.052317 45.7637363,18.8562754 46.2370273,18.4474568 C46.7103183,18.0386383 46.9870353,17.4544283 47,16.8366548 L47,8.15482692 C46.9845952,7.536883 46.7053822,6.95353438 46.2301902,6.5464943 C45.7549983,6.13945423 45.1273151,5.94597346 44.4996243,6.0130544 Z"></path>
            <path d="M62.2410938,6.01201046 C60.9114781,6.13126205 59.7517293,6.95698893 59.211951,8.16872291 L58.4041796,7.78700389 C58.6147479,7.36128021 58.8833158,6.96631776 59.2023347,6.61321791 C58.7110436,6.21000972 58.0895081,5.9965039 57.4521632,6.01201046 C56.8357211,5.94791506 56.2203277,6.14231927 55.754661,6.54825533 C55.2889943,6.9541914 55.0154079,7.53473834 55,8.14963696 L55,16.8528305 C55.155135,18.0796329 56.2062352,19 57.4521632,19 C58.6980913,19 59.7491915,18.0796329 59.9043265,16.8528305 L59.9043265,11.62328 C59.8354787,11.098858 60.0941657,10.5854304 60.5582367,10.3254354 C60.7854273,11.1742609 61.6012038,11.7328531 62.481502,11.642366 C63.1854839,11.6236111 63.8508013,11.318728 64.3217092,10.7990872 C64.792617,10.2794464 65.0277735,9.590668 64.9721305,8.89398904 C65.0869508,8.13102973 64.8432093,7.35791859 64.3106748,6.79595141 C63.7781403,6.23398423 63.0155152,5.94510787 62.2410938,6.01201046 Z"></path>
            <path d="M73.221669,6.01126754 C71.8941571,6.12987071 70.7370219,6.95642979 70.2022228,8.16810335 L69.3848568,7.7863625 C69.5992293,7.36053797 69.8709705,6.96563328 70.1926068,6.61250938 C69.7013288,6.20927813 69.0798098,5.9957601 68.4424819,6.01126754 C67.8276207,5.95000775 67.2148369,6.14571217 66.7513668,6.55135798 C66.2878967,6.95700379 66.0156353,7.53592314 66,8.14901631 L66,16.8527077 C66.1551309,18.0795803 67.2062031,19 68.452098,19 C69.6979928,19 70.7490651,18.0795803 70.904196,16.8527077 L70.904196,11.6228581 C70.8307913,11.1000851 71.0861008,10.5857547 71.5484727,10.3249392 C71.7791506,11.1713677 72.592476,11.7283283 73.4716868,11.6419451 C74.1763899,11.6230304 74.8425228,11.3184366 75.3149192,10.7991146 C75.7873156,10.2797926 76.0247318,9.59108297 75.9718652,8.89341097 C76.0877819,8.12680762 75.8416688,7.34992221 75.3045892,6.78707495 C74.7675096,6.22422768 73.9992607,5.93808461 73.221669,6.01126754 Z"></path>
            <path d="M4.33333333,13.0902779 C4.81996923,11.9493766 5.81800519,11.1316163 7,10.9052922 C5.21903717,9.71948085 4.14226305,7.67387799 4.14285714,5.47743184 C4.14565065,5.02582729 4.19030089,4.57554977 4.27619048,4.13282527 C4.27619048,4.03395713 4.22857143,3.98452307 4.15238095,4.0042967 C3.45688746,4.28863888 2.95011585,4.92292865 2.80952381,5.68505492 C2.72012952,5.27254188 2.66910165,4.85207019 2.65714286,4.42942966 C2.65714286,4.32067471 2.59047619,4.29101427 2.47619048,4.35033515 C1.83191856,4.75318186 1.46297572,5.50004207 1.52380952,6.2782637 C0.703046024,6.82881552 0.148431273,7.71763591 0,8.72030653 C0,10.3021966 3.0952381,9.20476037 3.0952381,10.6976691 C3.0952381,11.814879 0.761904762,11.5874823 0.761904762,13.3077878 C0.761904762,13.7131471 1,13.9998647 1.20952381,13.9998647 C1.2775274,14.0024106 1.34211213,13.9688874 1.38095238,13.9108834 C2.15124849,13.1059589 3.2786627,12.7925975 4.33333333,13.0902779 L4.33333333,13.0902779 Z"></path>
            <path d="M13.4255355,7.70783837 C11.4181755,6.87141675 10.2214801,6.23459574 10.2214801,5.22708787 C10.159908,4.51210741 10.6931055,3.88110166 11.4181755,3.81087399 C12.2770939,3.81087399 12.6631247,4.21958001 12.8271878,5.0940208 C12.8647477,5.60156953 13.1146959,6.07094438 13.517285,6.38994629 C13.9198741,6.7089482 14.4389224,6.84890765 14.950357,6.77636883 C15.6581982,6.82383285 16.3542508,6.57956854 16.8721281,6.10196567 C17.3900053,5.62436281 17.6831633,4.95634561 17.6815246,4.25759917 C17.6815246,1.73882951 15.4039431,0.00895751308 11.5050324,0.00895751308 C9.88711328,-0.0790970947 8.30245682,0.484983965 7.11556616,1.57145061 C5.9286755,2.65791725 5.24172636,4.17323895 5.21273098,5.76886097 C5.21273098,8.69633665 7.47101094,10.3596751 9.81614782,11.4242117 C11.3795724,12.2891477 12.7113785,12.8784448 12.7113785,14.2756491 C12.6964026,14.6228475 12.5411354,14.9497463 12.2801305,15.1835967 C12.0191256,15.4174472 11.6740393,15.5388459 11.3216678,15.5207767 C10.5882094,15.5207767 10.2986863,15.2831569 10.5399555,14.9885084 C10.7913097,14.7078333 10.9287534,14.3457325 10.9259863,13.9714958 C10.9259863,12.8594352 9.82579859,11.9374704 8.2334217,11.9374704 C6.21641096,11.9374704 5.11622328,13.0875502 5.11622328,14.7889078 C5.1827027,15.7891499 5.68171116,16.7132339 6.48663249,17.326687 L5.79177712,17.326687 C4.94244522,17.288703 4.18870343,17.8584997 4.00638484,18.6763674 C3.98807754,18.7578521 4.00964073,18.8430759 4.0646308,18.9065718 C4.11962088,18.9700678 4.20166898,19.0044818 4.28625714,18.9995303 L10.810177,18.9995303 C15.5197523,18.9995303 18,16.6993708 18,13.2966556 C18,10.4071991 15.954037,8.81989894 13.4255355,7.70783837 Z"></path>
        </g>
    </g>
</svg>