<svg xmlns="http://www.w3.org/2000/svg" width="93" height="18" viewBox="0 0 93 18">
    <g fill="#FFF" fill-rule="evenodd">
        <path d="M66.815.725h-1.92c-.554 0-.75.194-.75.714V5.43c0 .52.229.714.75.714h2.744c.521 0 .652.13.652.649v9.821c0 .52.195.747.716.747h4.004c.521 0 .716-.227.716-.747V6.793c0-.519.13-.649.652-.649h2.724c.52 0 .749-.195.749-.714V1.44c0-.52-.228-.714-.749-.714h-3.548M38.83 11.79c-1.66 0-2.865-1.297-2.865-2.953 0-1.654 1.205-2.953 2.865-2.953 1.66 0 2.865 1.299 2.865 2.953 0 1.656-1.204 2.953-2.865 2.953m0-11.39c-4.72 0-8.562 3.245-8.562 8.437 0 5.193 3.841 8.438 8.562 8.438 4.72 0 8.563-3.245 8.563-8.438C47.394 3.645 43.552.4 38.83.4M23.627 11.79c-1.66 0-2.865-1.33-2.865-2.985 0-1.655 1.205-2.92 2.865-2.92.88 0 1.433.291 1.986.81.521.52.944.488 1.498.066l3.256-2.434c.195-.162.325-.52.097-.779C28.576 1.211 25.971.4 23.627.4c-4.72 0-8.562 3.245-8.562 8.437 0 5.193 3.842 8.438 8.562 8.438 2.344 0 4.949-.812 6.837-3.148.228-.26.098-.616-.097-.78l-3.256-2.433c-.554-.421-.977-.454-1.498.065-.553.52-1.107.811-1.986.811m33.79 5.57l-3.331-.085c-3.158 0-5.73-2.142-5.73-6.393V1.47c0-.52.195-.746.716-.746h4.005c.52 0 .716.227.716.746V8.87c0 1.428.51 2.82 2.008 2.82 1.4 0 1.913-1.306 1.913-2.734V1.557c0-.519.196-.746.717-.746h4.004c.521 0 .716.227.716.746v9.41c0 4.252-2.571 6.394-5.73 6.394M85.822 17.36c4.117 0 7.108-2.083 7.108-5.449 0-3.398-2.508-4.584-5.757-5.097-1.608-.256-2.894-.16-2.894-.897 0-.385.418-.673 1.382-.673 1.062 0 2.22.448 3.474 1.025.579.32.868.16 1.093-.192l1.705-3.013c.193-.385.096-.738-.193-.898C89.874 1.108 88.01.692 85.63.692c-3.603 0-6.883 2.019-6.883 5.289 0 3.494 2.573 4.872 6.4 5.417 1.64.225 2.155.385 2.155.866 0 .48-.643.705-1.512.705-1.382 0-3.087-.577-4.438-1.378-.579-.353-.868-.257-1.093.096l-1.544 2.853c-.193.385-.193.673.193.898 1.8 1.218 4.406 1.923 6.914 1.923M7.36 17.36c4.189 0 7.232-2.12 7.232-5.544 0-3.457-2.552-4.664-5.857-5.186C7.1 6.369 5.79 6.467 5.79 5.717c0-.392.425-.685 1.407-.685 1.08 0 2.258.456 3.534 1.043.589.327.884.163 1.112-.195l1.735-3.066c.196-.392.098-.75-.196-.914C11.484.824 9.586.4 7.164.4 3.5.4.162 2.455.162 5.782c0 3.555 2.617 4.958 6.512 5.512 1.669.228 2.192.391 2.192.88 0 .49-.655.718-1.538.718-1.407 0-3.141-.587-4.516-1.402-.59-.359-.884-.261-1.113.098L.13 14.49c-.196.392-.196.686.196.914 1.833 1.24 4.483 1.957 7.036 1.957"/>
    </g>
</svg>
