<svg xmlns="http://www.w3.org/2000/svg" width="57" height="23" viewBox="0 0 57 23">
    <path fill="#FFF" fill-rule="evenodd" d="M11.368 17.825h-3.44c-1.863 0-2.967-.818-2.967-2.482 0-1.538.736-2.72 1.811-3.703.968-.877 2.052-1.315 3.253-1.315h1.638l2.154-4.39H9.943c-2.884 0-5.263.925-7.135 2.774C.936 10.56 0 12.847 0 15.576c0 2.082.555 3.689 1.666 4.82C2.85 21.599 4.578 22.2 6.853 22.2h6.007l-1.492-4.375zm16.77-11.89h-5.16v11.876h-.565c-1.272 0-2.132-.135-2.58-.404-.663-.377-.995-1.158-.995-2.343 0-1.13.314-2.666.941-4.605.054-.125.609-1.633 1.666-4.523h-5.294c-1.846 3.931-2.768 7.091-2.768 9.478 0 4.524 2.168 6.786 6.504 6.786h8.25V5.936zm15.451 1.913c-1.147-1.275-2.92-1.912-5.321-1.912H35.58V.2h-5.16v22h5.322c2.508 0 4.685-.992 6.53-2.975 1.845-1.984 2.768-4.331 2.768-7.042 0-1.813-.483-3.258-1.451-4.335zm-4.999 8.159c-.788 1.04-1.791 1.642-3.01 1.804v-7.486h1.667c1.683 0 2.526.745 2.526 2.235 0 1.257-.394 2.406-1.183 3.447zm16.841-1.508l-2.299-2.882c-.288-.358-.432-.628-.432-.807 0-.413.403-.62 1.209-.62h2.85V5.936h-5.887c-1.54 0-2.436.484-3.224 1.454-.574.7-.86 1.463-.86 2.289 0 1.238.26 2.46 1.316 3.662l2.634 2.989c.34.395.51.727.51.996 0 .323-.241.485-.725.485h-4.624L42.994 22.2h9.939c1.202 0 2.181-.395 2.935-1.185S57 19.292 57 18.215c0-1.167-.523-2.406-1.569-3.716z"/>
</svg>
